<svg width="3" height="3" viewBox="0 0 3 3" fill="none" xmlns="http://www.w3.org/2000/svg">
<circle cx="1.30889" cy="1.34034" r="1.23711" fill="white"/>
</svg>
<svg width="3" height="3" viewBox="0 0 3 3" fill="none" xmlns="http://www.w3.org/2000/svg">
<circle cx="1.30889" cy="1.65977" r="1.23711" fill="white"/>
</svg>
<svg width="28" height="7" viewBox="0 0 28 7" fill="none" xmlns="http://www.w3.org/2000/svg">
<rect x="1.70117" y="1.4537" width="25.2165" height="3.56701" stroke="white" stroke-width="2"/>
</svg>
<svg width="12" height="8" viewBox="0 0 12 8" fill="none" xmlns="http://www.w3.org/2000/svg">
<path d="M2.12165 1.87614L3.69391 6.68027H8.92448L10.4967 1.87614H2.12165Z" stroke="white" stroke-width="2"/>
</svg>
<svg width="12" height="8" viewBox="0 0 12 8" fill="none" xmlns="http://www.w3.org/2000/svg">
<path d="M2.08622 6.59806L3.71302 1.17538H9.23976L10.5954 6.59806H2.08622Z" stroke="white" stroke-width="2"/>
</svg>
<svg width="7" height="12" viewBox="0 0 7 12" fill="none" xmlns="http://www.w3.org/2000/svg">
<mask id="path-1-inside-1_2:1893" fill="white">
<path d="M0.251953 0.424026H6.36593V11.1235H0.251953V0.424026Z"/>
</mask>
<path d="M0.251953 0.424026V-1.57597H-1.74805V0.424026H0.251953ZM6.36593 0.424026H8.36593V-1.57597H6.36593V0.424026ZM6.36593 11.1235V13.1235H8.36593V11.1235H6.36593ZM0.251953 11.1235H-1.74805V13.1235H0.251953V11.1235ZM0.251953 2.42403H6.36593V-1.57597H0.251953V2.42403ZM4.36593 0.424026V11.1235H8.36593V0.424026H4.36593ZM6.36593 9.12349H0.251953V13.1235H6.36593V9.12349ZM2.25195 11.1235V0.424026H-1.74805V11.1235H2.25195Z" fill="white" mask="url(#path-1-inside-1_2:1893)"/>
</svg>
<svg width="7" height="14" viewBox="0 0 7 14" fill="none" xmlns="http://www.w3.org/2000/svg">
<mask id="path-1-inside-1_2:1891" fill="white">
<path d="M0.251953 0.948532H6.36593V13.1765H0.251953V0.948532Z"/>
</mask>
<path d="M0.251953 0.948532V-1.05147H-1.74805V0.948532H0.251953ZM6.36593 0.948532H8.36593V-1.05147H6.36593V0.948532ZM6.36593 13.1765V15.1765H8.36593V13.1765H6.36593ZM0.251953 13.1765H-1.74805V15.1765H0.251953V13.1765ZM0.251953 2.94853H6.36593V-1.05147H0.251953V2.94853ZM4.36593 0.948532V13.1765H8.36593V0.948532H4.36593ZM6.36593 11.1765H0.251953V15.1765H6.36593V11.1765ZM2.25195 13.1765V0.948532H-1.74805V13.1765H2.25195Z" fill="white" mask="url(#path-1-inside-1_2:1891)"/>
</svg>
