<svg width="31" height="65" fill="none" xmlns="http://www.w3.org/2000/svg"><path d="M21.787 8v17.08c-.406 1.665-3.042 2.914-6.186 2.914-3.143 0-5.78-1.25-6.185-2.914V7.7c0-.104 0-.312.101-.416.507-1.25 3.042-2.186 6.186-2.186 3.143 0 5.797.9 5.932 2.186 0 0 .152.507.152.715z" stroke="#fff" stroke-width="2" stroke-miterlimit="10"/><path d="M15.5 5.1c-.71 0-1.217-.625-1.217-1.25v-2.6c0-.73.609-1.25 1.217-1.25.71 0 1.217.624 1.217 1.249V3.85c0 .729-.507 1.25-1.217 1.25z" fill="#fff"/><path d="M14.283 1.977s-.406 2.186-3.752 3.226H15.5l-1.217-3.226zm2.434 0s.405 2.186 3.752 3.226H15.5l1.217-3.226z" fill="#fff"/><path d="M18.846 27.681h-6.692v3.434h6.692v-3.434z" fill="#fff" fill-opacity=".7"/><path d="M15.5 33.3c4.816 0 8.72-.558 8.72-1.248s-3.904-1.249-8.72-1.249c-4.816 0-8.72.56-8.72 1.249 0 .69 3.904 1.249 8.72 1.249zm-8.72-1.768v6.036m17.44-5.516v5.932m5.78.832c0 1.145-6.49 3.018-14.5 3.018S1 40.065 1 38.816c0-.416 3.346-2.185 5.78-2.185 1.622.416 6.286.832 8.72.832 2.434 0 7.2-.416 8.72-.832 2.535.104 5.78 1.769 5.78 2.185z" stroke="#fff" stroke-width="2" stroke-miterlimit="10"/><path d="M24.22 41.106v9.261c0 .937-3.954 1.666-8.72 1.666s-8.72-.729-8.72-1.666v-9.261M9.213 51.2v9.366M21.787 51.2v9.366M17.122 64h-3.244c-.71 0-1.318-.624-1.318-1.353V52.033h5.78v10.614c.1.729-.508 1.353-1.218 1.353z" stroke="#fff" stroke-width="2" stroke-miterlimit="10"/></svg>