<svg width="17" height="17" fill="none" xmlns="http://www.w3.org/2000/svg"><path d="M10.635 3.143h5.9v12.021c0 .518-.465.836-.97.836H1.357c-.504 0-.893-.398-.893-.916V3.143h5.823" stroke="#E5E5E5" stroke-width=".8" stroke-miterlimit="10"/><path d="M10.85 3.143h5.63c.04 0 .078-.032.04-.064L14.423 1H2.578L.48 3.079c-.038.032 0 .064.04.064h5.63" stroke="#E5E5E5" stroke-width=".8" stroke-miterlimit="10"/><path d="M11.178 3.143L10.247 1h-3.4L5.82 3.143m5.358 0v4.286l-2.61-1.506-2.747 1.506V3.143m4.629 8.571H6.587c-.443 0-.765-.438-.765-.925v-.292c0-.536.363-.926.765-.926h3.825c.442 0 .764.439.764.926v.292c.04.536-.322.925-.724.925z" stroke="#E5E5E5" stroke-width=".8" stroke-miterlimit="10"/></svg>