<svg width="17" height="17" fill="none" xmlns="http://www.w3.org/2000/svg"><path d="M.22 4.577c0-1.073.27-1.986.81-2.738S2.353.711 3.378.711c.944 0 1.723.339 2.338 1.016.622.67.933 1.657.933 2.963 0 1.271-.314 2.252-.943 2.943-.622.683-1.391 1.025-2.307 1.025-.91 0-1.668-.338-2.276-1.015C.52 6.966.22 5.944.22 4.577zm3.21-2.594c-.458 0-.841.198-1.149.595-.3.396-.45 1.124-.45 2.184 0 .964.153 1.644.46 2.04.308.39.688.585 1.139.585.465 0 .847-.199 1.148-.595.308-.396.462-1.121.462-2.174 0-.97-.154-1.65-.462-2.04-.307-.397-.69-.595-1.148-.595zm.01 14.57L11.664.712h1.497L4.968 16.554H3.44zm6.5-4.08c0-1.08.27-1.993.811-2.738.54-.752 1.326-1.128 2.358-1.128.944 0 1.723.338 2.338 1.015.622.67.933 1.658.933 2.963 0 1.272-.314 2.253-.943 2.943-.622.684-1.394 1.026-2.317 1.026-.91 0-1.668-.339-2.277-1.015-.601-.684-.902-1.706-.902-3.066zm3.22-2.595c-.464 0-.85.199-1.158.595-.3.397-.451 1.125-.451 2.184 0 .957.154 1.634.461 2.03.308.397.687.595 1.138.595.472 0 .858-.198 1.16-.595.307-.396.46-1.12.46-2.173 0-.971-.153-1.651-.46-2.04-.309-.397-.691-.596-1.15-.596z" fill="#E5E5E5"/></svg>