<svg width="23" height="24" fill="none" xmlns="http://www.w3.org/2000/svg"><path d="M22.725 22.206l-5.459-5.348c1.78-1.802 2.908-4.244 2.908-6.976C20.174 4.418 15.664 0 10.087 0 4.509 0 0 4.418 0 9.882c0 5.464 4.51 9.882 10.087 9.882 2.136 0 4.153-.697 5.815-1.802l5.577 5.464c.178.175.415.233.653.233.237 0 .474-.058.652-.233a.886.886 0 00-.059-1.22zM1.78 9.882c0-4.476 3.738-8.138 8.307-8.138 4.569 0 8.307 3.662 8.307 8.138s-3.738 8.138-8.307 8.138c-4.569 0-8.307-3.662-8.307-8.138z" fill="#48494D"/></svg>