<svg width="29" height="41" viewBox="0 0 29 41" fill="none" xmlns="http://www.w3.org/2000/svg">
<path d="M22.7327 5.22677C22.7327 5.22677 22.7327 6.64945 23.2894 7.63914C23.6605 8.2577 25.578 10.9794 26.7533 12.402C27.4956 13.268 27.31 14.134 27.31 14.3196V38.2577C27.31 38.8144 26.8152 39.1855 26.1347 39.1855H3.18629C2.56773 39.1855 2.32031 38.8144 2.32031 38.2577V17.8453C2.32031 15.9278 2.93887 14.134 4.79454 12.8969L15.9904 7.57729C16.9182 7.1443 17.5368 6.34017 17.5987 5.4742C17.5987 5.35048 17.5987 5.28863 17.5987 5.16492H22.7327V5.22677Z" stroke="white" stroke-width="3" stroke-miterlimit="10"/>
<path d="M22.7324 5.536H17.1654C16.7943 5.536 16.5469 5.22672 16.5469 4.91744V2.13394C16.5469 1.7628 16.8562 1.51538 17.1654 1.51538H22.7324C23.1036 1.51538 23.351 1.82466 23.351 2.13394V4.91744C23.351 5.22672 23.0417 5.536 22.7324 5.536Z" stroke="white" stroke-width="3" stroke-miterlimit="10"/>
<path d="M11.5991 29.0413H23.9703" stroke="white" stroke-width="3" stroke-miterlimit="10"/>
<path d="M11.5991 33.9895H19.6404" stroke="white" stroke-width="3" stroke-miterlimit="10"/>
</svg>
