<svg xmlns="http://www.w3.org/2000/svg" xmlns:xlink="http://www.w3.org/1999/xlink"><symbol id="accessoire-icon"><path d="M21.787 8v17.08c-.406 1.665-3.042 2.914-6.186 2.914-3.143 0-5.78-1.25-6.185-2.914V7.7c0-.104 0-.312.101-.416.507-1.25 3.042-2.186 6.186-2.186 3.143 0 5.797.9 5.932 2.186 0 0 .152.507.152.715z" stroke="#fff" stroke-width="2" stroke-miterlimit="10"/><path d="M15.5 5.1c-.71 0-1.217-.625-1.217-1.25v-2.6c0-.73.609-1.25 1.217-1.25.71 0 1.217.624 1.217 1.249V3.85c0 .729-.507 1.25-1.217 1.25z" fill="#fff"/><path d="M14.283 1.977s-.406 2.186-3.752 3.226H15.5l-1.217-3.226zm2.434 0s.405 2.186 3.752 3.226H15.5l1.217-3.226z" fill="#fff"/><path d="M18.846 27.681h-6.692v3.434h6.692v-3.434z" fill="#fff" fill-opacity=".7"/><path d="M15.5 33.3c4.816 0 8.72-.558 8.72-1.248s-3.904-1.249-8.72-1.249c-4.816 0-8.72.56-8.72 1.249 0 .69 3.904 1.249 8.72 1.249zm-8.72-1.768v6.036m17.44-5.516v5.932m5.78.832c0 1.145-6.49 3.018-14.5 3.018S1 40.065 1 38.816c0-.416 3.346-2.185 5.78-2.185 1.622.416 6.286.832 8.72.832 2.434 0 7.2-.416 8.72-.832 2.535.104 5.78 1.769 5.78 2.185z" stroke="#fff" stroke-width="2" stroke-miterlimit="10"/><path d="M24.22 41.106v9.261c0 .937-3.954 1.666-8.72 1.666s-8.72-.729-8.72-1.666v-9.261M9.213 51.2v9.366M21.787 51.2v9.366M17.122 64h-3.244c-.71 0-1.318-.624-1.318-1.353V52.033h5.78v10.614c.1.729-.508 1.353-1.218 1.353z" stroke="#fff" stroke-width="2" stroke-miterlimit="10"/></symbol><symbol id="arrowdown-icon"><path fill-rule="evenodd" clip-rule="evenodd" d="M10.6 0L6 4.6 1.4 0 0 1.4l6 6 6-6L10.6 0z" fill="#D7D9DF"/></symbol><symbol id="bag-icon"><path d="M1 6.538V25h20V6.538H1zm4.545 0S5.545 1 11 1c5.454 0 5.454 5.538 5.454 5.538" fill="#FF7931"/><path d="M5.545 6.538S5.545 1 11 1c5.454 0 5.454 5.538 5.454 5.538M1 6.538V25h20V6.538H1z" stroke="#fff" stroke-width="2" stroke-linecap="round" stroke-linejoin="round"/></symbol><symbol id="battery-icon"><path stroke="#fff" stroke-width="2" d="M5 20h52v28H5z"/><rect x="1" y="10" width="60" height="5" rx="2.5" stroke="#fff" stroke-width="2"/><path stroke="#fff" stroke-width="2" d="M16 1h30v4H16z"/><path d="M7 2.5a2.5 2.5 0 015 0V6H7V2.5zM50 3a3 3 0 116 0v3h-6V3z" fill="#fff"/><rect x="42.744" y="28.085" width="1.793" height="11.354" rx=".896" fill="#fff"/><rect x="37.963" y="34.658" width="1.793" height="11.354" rx=".896" transform="rotate(-90 37.963 34.658)" fill="#fff"/><rect x="13" y="35" width="2" height="11" rx="1" transform="rotate(-90 13 35)" fill="#fff"/></symbol><symbol id="burger-icon"><rect y=".832" width="33" height="3" rx="1.5" fill="#C4C4C4"/><rect y="12.832" width="33" height="3" rx="1.5" fill="#C4C4C4"/><rect y="24.832" width="33" height="3" rx="1.5" fill="#C4C4C4"/></symbol><symbol id="cart-icon"><path d="M0 1.936h3.884a1 1 0 01.962.727l4.228 14.9a1 1 0 00.962.728h14.72a1 1 0 00.965-.736l2.933-10.72a1 1 0 00-.964-1.265H5.67M15 23.913c0 1.444-1.14 2.577-2.5 2.577S10 25.357 10 23.913c0-1.445 1.14-2.578 2.5-2.578s2.5 1.133 2.5 2.578zm9 0c0 1.444-1.14 2.577-2.5 2.577S19 25.357 19 23.913c0-1.445 1.14-2.578 2.5-2.578s2.5 1.133 2.5 2.578z" stroke="#A8A8A8" stroke-width="2"/></symbol><symbol id="check-icon"><path fill-rule="evenodd" clip-rule="evenodd" d="M2.545 4.746L.636 2.866 0 3.493 2.545 6 8 .627 7.364 0 2.545 4.746z" fill="#fff"/></symbol><symbol id="delivery-icon"><path d="M10.635 3.143h5.9v12.021c0 .518-.465.836-.97.836H1.357c-.504 0-.893-.398-.893-.916V3.143h5.823" stroke="#E5E5E5" stroke-width=".8" stroke-miterlimit="10"/><path d="M10.85 3.143h5.63c.04 0 .078-.032.04-.064L14.423 1H2.578L.48 3.079c-.038.032 0 .064.04.064h5.63" stroke="#E5E5E5" stroke-width=".8" stroke-miterlimit="10"/><path d="M11.178 3.143L10.247 1h-3.4L5.82 3.143m5.358 0v4.286l-2.61-1.506-2.747 1.506V3.143m4.629 8.571H6.587c-.443 0-.765-.438-.765-.925v-.292c0-.536.363-.926.765-.926h3.825c.442 0 .764.439.764.926v.292c.04.536-.322.925-.724.925z" stroke="#E5E5E5" stroke-width=".8" stroke-miterlimit="10"/></symbol><symbol id="filter-icon"><g opacity=".3" fill="#48494D"><rect x="6" width="19" height="3" rx="1.5"/><rect x="6" y="8" width="19" height="3" rx="1.5"/><rect x="6" y="16" width="19" height="3" rx="1.5"/><rect width="3" height="3" rx="1.5"/><rect y="8" width="3" height="3" rx="1.5"/><rect y="16" width="3" height="3" rx="1.5"/></g></symbol><symbol id="heart-icon"><path clip-rule="evenodd" d="M7.367 1.206c-3.889 0-6.975 3.567-6.265 8.686.616 4.443 11.22 13.314 12.398 13.314 1.178 0 11.782-8.871 12.398-13.314.71-5.12-2.377-8.686-6.265-8.686-2.592 0-4.61 1.09-6.133 3.27-1.522-2.18-3.541-3.27-6.133-3.27z" stroke="#A8A8A8" stroke-width="2"/></symbol><symbol id="heartmenu-icon"><path clip-rule="evenodd" d="M5.33 1C2.684 1 .586 3.432 1.07 6.922 1.487 9.952 8.7 16 9.5 16c.8 0 8.012-6.049 8.43-9.078C18.414 3.432 16.316 1 13.67 1c-1.762 0-3.135.743-4.17 2.23C8.465 1.742 7.092 1 5.33 1z" stroke="#E5E5E5"/></symbol><symbol id="home-icon"><path d="M5.833 11.029a.5.5 0 00-.5.5V16.1a.5.5 0 01-.5.5H1.5a.5.5 0 01-.5-.5V6.801a.5.5 0 01.175-.38l6-5.142a.5.5 0 01.65 0l6 5.143a.5.5 0 01.175.38V16.1a.5.5 0 01-.5.5h-3.333a.5.5 0 01-.5-.5v-4.571a.5.5 0 00-.5-.5H5.833z" stroke="#E5E5E5" stroke-linecap="round" stroke-linejoin="round"/></symbol><symbol id="navigate-icon"><path d="M13.656 23.711l-.849.529.85-.529a2 2 0 00-1.265-.895l-.217.977.217-.977-10.895-2.418 22.455-12.57-4.395 25.356-5.9-9.473z" stroke="#A8A8A8" stroke-width="2"/></symbol><symbol id="percent-icon"><path d="M.22 4.577c0-1.073.27-1.986.81-2.738S2.353.711 3.378.711c.944 0 1.723.339 2.338 1.016.622.67.933 1.657.933 2.963 0 1.271-.314 2.252-.943 2.943-.622.683-1.391 1.025-2.307 1.025-.91 0-1.668-.338-2.276-1.015C.52 6.966.22 5.944.22 4.577zm3.21-2.594c-.458 0-.841.198-1.149.595-.3.396-.45 1.124-.45 2.184 0 .964.153 1.644.46 2.04.308.39.688.585 1.139.585.465 0 .847-.199 1.148-.595.308-.396.462-1.121.462-2.174 0-.97-.154-1.65-.462-2.04-.307-.397-.69-.595-1.148-.595zm.01 14.57L11.664.712h1.497L4.968 16.554H3.44zm6.5-4.08c0-1.08.27-1.993.811-2.738.54-.752 1.326-1.128 2.358-1.128.944 0 1.723.338 2.338 1.015.622.67.933 1.658.933 2.963 0 1.272-.314 2.253-.943 2.943-.622.684-1.394 1.026-2.317 1.026-.91 0-1.668-.339-2.277-1.015-.601-.684-.902-1.706-.902-3.066zm3.22-2.595c-.464 0-.85.199-1.158.595-.3.397-.451 1.125-.451 2.184 0 .957.154 1.634.461 2.03.308.397.687.595 1.138.595.472 0 .858-.198 1.16-.595.307-.396.46-1.12.46-2.173 0-.971-.153-1.651-.46-2.04-.309-.397-.691-.596-1.15-.596z" fill="#E5E5E5"/></symbol><symbol id="rate-icon"><rect x="16" y="15.771" width="4" height="11.726" rx="2" fill="#CDCDCD"/><rect x="8" y=".528" width="4" height="26.969" rx="2" fill="#CDCDCD"/><rect y="9.908" width="4" height="17.588" rx="2" fill="#CDCDCD"/></symbol><symbol id="search-icon"><path d="M22.725 22.206l-5.459-5.348c1.78-1.802 2.908-4.244 2.908-6.976C20.174 4.418 15.664 0 10.087 0 4.509 0 0 4.418 0 9.882c0 5.464 4.51 9.882 10.087 9.882 2.136 0 4.153-.697 5.815-1.802l5.577 5.464c.178.175.415.233.653.233.237 0 .474-.058.652-.233a.886.886 0 00-.059-1.22zM1.78 9.882c0-4.476 3.738-8.138 8.307-8.138 4.569 0 8.307 3.662 8.307 8.138s-3.738 8.138-8.307 8.138c-4.569 0-8.307-3.662-8.307-8.138z" fill="#48494D"/></symbol><symbol id="shampoo-icon"><path d="M35 8s0 2.3.9 3.9c.6 1 3.7 5.4 5.6 7.7 1.2 1.4.9 2.8.9 3.1v38.7c0 .9-.8 1.5-1.9 1.5H3.4c-1 0-1.4-.6-1.4-1.5v-33c0-3.1 1-6 4-8l18.1-8.6c1.5-.7 2.5-2 2.6-3.4v-.5H35V8z" stroke="#fff" stroke-width="3" stroke-miterlimit="10"/><path d="M35 8.5h-9c-.6 0-1-.5-1-1V3c0-.6.5-1 1-1h9c.6 0 1 .5 1 1v4.5c0 .5-.5 1-1 1zm-18 38h20m-20 8h13" stroke="#fff" stroke-width="3" stroke-miterlimit="10"/></symbol><symbol id="snowflake-icon"><path d="M27.366 19.09l-.54-2.042-5.53 1.46-2.438-1.461v-3.382l2.624-1.523 5.658 1.5.54-2.043-3.612-.957 3.61-2.096-1.06-1.828L23.05 8.79l.934-3.539-2.043-.539-1.47 5.575-2.67 1.55-2.916-1.684V7.137l4.13-4.103-1.488-1.499-2.642 2.624V0h-2.113v4.13l-2.593-2.592L8.684 3.03l4.088 4.087v3.035l-2.917 1.684-2.612-1.508-1.482-5.617-2.043.54.947 3.588L1.06 6.756.002 8.586l3.586 2.071-3.566.941.54 2.043 5.616-1.483-.002-.005 2.622 1.514v3.445L6.165 18.64.56 17.161l-.539 2.043 3.555.938L0 22.218l1.06 1.827 3.613-2.096-.954 3.602 2.042.54 1.495-5.641 2.664-1.547 2.851 1.647v3.134l-4.087 4.087 1.494 1.494 2.593-2.593v4.13h2.113v-4.159l2.642 2.625 1.49-1.5-4.132-4.104V20.55l2.908-1.679 2.664 1.596 1.16 5.46 2.065-.44-.751-3.537 3.362 2.014 1.085-1.813-3.549-2.127 3.538-.934zm-10.62-2.055l-2.918 1.685-2.917-1.685v-3.368l2.917-1.684 2.918 1.684v3.368z" fill="#6CA7FF"/></symbol><symbol id="sort-icon"><path stroke="#48494D" stroke-width="2" d="M1 1h21v19H1z"/><path fill="#48494D" d="M6 5h4v4H6zm0 7h4v4H6zm7-7h4v4h-4zm0 7h4v4h-4z"/></symbol><symbol id="spares-icon"><circle cx="28" cy="27.5" r="26.5" stroke="#fff" stroke-width="2"/><circle cx="28" cy="27.5" r="13.348" stroke="#fff" stroke-width="2"/><circle cx="8.272" cy="28.098" r="2.989" fill="#fff"/><circle cx="47.728" cy="28.098" r="2.989" fill="#fff"/><circle cx="43.544" cy="15.543" r="2.391" fill="#fff"/><circle cx="33.978" cy="8.37" r="2.391" fill="#fff"/><circle cx="22.022" cy="8.37" r="2.391" fill="#fff"/><circle cx="12.456" cy="15.543" r="2.391" fill="#fff"/><circle r="2.391" transform="matrix(-1 0 0 1 43.543 39.456)" fill="#fff"/><circle r="2.391" transform="matrix(-1 0 0 1 33.977 46.63)" fill="#fff"/><circle r="2.391" transform="matrix(-1 0 0 1 22.02 46.63)" fill="#fff"/><circle r="2.391" transform="matrix(-1 0 0 1 12.456 39.456)" fill="#fff"/></symbol><symbol id="star-icon"><path d="M11.537 0l2.59 7.946h8.383l-6.781 4.911 2.59 7.947-6.781-4.911-6.782 4.91 2.59-7.946-6.781-4.91h8.382L11.537 0z" fill="#FF7931"/></symbol><symbol id="sun-icon"><path d="M6.522 8.516a1.409 1.409 0 101.992-1.993L6.542 4.55a1.41 1.41 0 00-2.002-.01c-.55.55-.555 1.437.01 2.002l1.972 1.974zm23.057 5.575h-2.79c-.787 0-1.424.626-1.424 1.409 0 .779.624 1.409 1.424 1.409h2.79a1.41 1.41 0 100-2.818zM5.635 15.5a1.41 1.41 0 00-1.423-1.409h-2.79A1.41 1.41 0 000 15.5c0 .779.624 1.409 1.421 1.409h2.791c.786 0 1.423-.624 1.423-1.409zM15.5 7.044a8.453 8.453 0 000 16.904 8.454 8.454 0 008.452-8.452A8.454 8.454 0 0015.5 7.044zm0 14.087a5.635 5.635 0 110-11.27 5.635 5.635 0 010 11.27zm-8.978 1.355L4.55 24.458a1.409 1.409 0 101.992 1.992l1.972-1.972a1.41 1.41 0 00.01-2.002 1.406 1.406 0 00-2.002.01zm17.956-13.97l1.972-1.974a1.413 1.413 0 00.01-2.002 1.409 1.409 0 00-2.002.01l-1.972 1.972a1.411 1.411 0 00-.01 2.002 1.41 1.41 0 002.002-.008zM15.5 25.365c-.779 0-1.409.626-1.409 1.424v2.79A1.41 1.41 0 0015.5 31c.779 0 1.409-.623 1.409-1.421v-2.79c0-.787-.624-1.424-1.409-1.424zm8.978-2.879a1.408 1.408 0 10-1.992 1.992l1.972 1.972a1.413 1.413 0 002.002.01c.55-.55.555-1.439-.01-2.002l-1.972-1.972zM15.5 5.635c.779 0 1.409-.624 1.409-1.423v-2.79a1.408 1.408 0 10-2.817 0v2.79c0 .786.625 1.423 1.408 1.423z" fill="#FF7931"/></symbol><symbol id="timer-icon"><path fill-rule="evenodd" clip-rule="evenodd" d="M25.2 13.985A11.21 11.21 0 0015.4 2.86v3.185a1.4 1.4 0 11-2.8 0V2.31C12.6.943 13.785-.03 14.936 0c.069.003.137.009.205.015l.068.006C22.375.635 28 6.652 28 13.985 28 21.725 21.732 28 14 28S0 21.725 0 13.985c0-3.766 1.493-7.3 4.1-9.91a1.399 1.399 0 011.98 0 1.403 1.403 0 010 1.982 11.177 11.177 0 00-3.28 7.928c0 6.192 5.014 11.212 11.2 11.212 6.186 0 11.2-5.02 11.2-11.212zM12.393 15.68a2.344 2.344 0 01-.334-.421l-.003.002L7.415 7.78a.28.28 0 01.385-.386l7.475 4.646-.003.003a2.337 2.337 0 01.42 3.638 2.332 2.332 0 01-3.3 0z" fill="#C4C4C4"/></symbol><symbol id="tires-icon"><path d="M32.5 64C49.897 64 64 49.897 64 32.5S49.897 1 32.5 1 1 15.103 1 32.5 15.103 64 32.5 64z" stroke="#fff" stroke-width="2" stroke-miterlimit="10"/><path d="M32.5 56.705c13.368 0 24.205-10.837 24.205-24.205 0-13.368-10.837-24.205-24.205-24.205-13.368 0-24.205 10.837-24.205 24.205 0 13.368 10.837 24.205 24.205 24.205z" stroke="#fff" stroke-width="2" stroke-miterlimit="10"/><path d="M32.5 42.337c5.433 0 9.837-4.404 9.837-9.837s-4.404-9.837-9.837-9.837-9.837 4.404-9.837 9.837 4.404 9.837 9.837 9.837z" stroke="#fff" stroke-width="2" stroke-miterlimit="10"/><path d="M32.5 37.805a5.416 5.416 0 100-10.831 5.416 5.416 0 000 10.831zM24.874 9.51c.22.995.442 2.1.442 3.095 0 6.963-5.637 12.6-12.6 12.6-1.105 0-2.1-.11-3.095-.442M40.126 9.51c-.22.995-.442 2.1-.442 3.095 0 6.963 5.637 12.6 12.6 12.6 1.105 0 2.1-.11 3.095-.442M24.874 55.49c.22-.995.442-2.1.442-3.095 0-6.964-5.637-12.6-12.6-12.6-1.105 0-2.1.11-3.095.442M40.126 55.49c-.22-.995-.442-2.1-.442-3.095 0-6.963 5.637-12.6 12.6-12.6 1.105 0 2.1.11 3.095.442" stroke="#fff" stroke-width="2" stroke-miterlimit="10"/></symbol><symbol id="tools-icon"><path stroke="#fff" stroke-width="2" d="M1 39h42v7H1zm13.344-5l3-10h9.875l2.5 10H14.344zm.036 17l2.945 9h9.35l2.945-9H14.38z"/><mask id="a" fill="#fff"><path d="M17.058 0h9.884v19.768h-9.884V0z"/></mask><path d="M17.058 0v-2h-2v2h2zm9.884 0h2v-2h-2v2zm0 19.768v2h2v-2h-2zm-9.884 0h-2v2h2v-2zm0-17.768h9.884v-4h-9.884v4zm7.884-2v19.768h4V0h-4zm2 17.768h-9.884v4h9.884v-4zm-7.884 2V0h-4v19.768h4z" fill="#fff" mask="url(#a)"/><mask id="b" fill="#fff"><path d="M17.058 63.819h9.884v17.297h-9.884V63.82z"/></mask><path d="M17.058 63.819v-2h-2v2h2zm9.884 0h2v-2h-2v2zm0 17.297v2h2v-2h-2zm-9.884 0h-2v2h2v-2zm0-15.297h9.884v-4h-9.884v4zm7.884-2v17.297h4V63.82h-4zm2 15.297h-9.884v4h9.884v-4zm-7.884 2V63.82h-4v17.297h4z" fill="#fff" mask="url(#b)"/></symbol><symbol id="user-icon"><path d="M12 14.992c2.75 0 5.5-2.207 5.5-6.371 0-4.164-1.833-6.663-5.5-6.663S6.5 5.331 6.5 8.621c0 4.164 2.75 6.371 5.5 6.371zm0 0c5.5 0 11 4.394 11 9.453H1c0-4.497 5.5-9.453 11-9.453z" stroke="#A8A8A8" stroke-width="2" stroke-linecap="round" stroke-linejoin="round"/></symbol><symbol id="usermenu-icon"><path d="M8 9.694c1.75 0 3.5-1.472 3.5-4.25C11.5 2.667 10.333 1 8 1S4.5 3.25 4.5 5.444c0 2.778 1.75 4.25 3.5 4.25zm0 0c3.5 0 7 2.931 7 6.306H1c0-3 3.5-6.306 7-6.306z" stroke="#E5E5E5" stroke-linecap="round" stroke-linejoin="round"/></symbol><symbol id="usermobile-icon"><path d="M10.348.832c-3.99 0-7.244 3.214-7.244 7.156 0 2.447 1.261 4.62 3.17 5.91C2.57 15.455 0 19.088 0 23.322h2.07c0-4.565 3.658-8.178 8.278-8.178 4.62 0 8.278 3.613 8.278 8.178h2.07c0-4.233-2.571-7.867-6.274-9.424 1.908-1.29 3.17-3.463 3.17-5.91 0-3.942-3.255-7.156-7.244-7.156zm0 2.044c2.87 0 5.174 2.277 5.174 5.112s-2.304 5.111-5.174 5.111c-2.87 0-5.174-2.276-5.174-5.111s2.304-5.112 5.174-5.112z" fill="#A8A8A8"/><ellipse cx="1.035" cy="23.322" rx="1.035" ry="1.022" fill="#A8A8A8"/><ellipse cx="19.661" cy="23.322" rx="1.035" ry="1.022" fill="#A8A8A8"/></symbol><symbol id="arrow-next"><path d="M13.38 4.42L9.399 8.546m3.983-4.128L9.336.514M13.38 4.42L.248 4.653" stroke="#fff"/></symbol><symbol id="arrow-top"><path fill-rule="evenodd" clip-rule="evenodd" d="M1.4 7.4L6 2.8l4.6 4.6L12 6 6 0 0 6l1.4 1.4z" fill="#E0E0E0"/></symbol><symbol id="logo"><path d="M36.133 8.793a25.798 25.798 0 00-3.135 6.175H7.864C1.93 14.45 0 8.793 0 8.793h36.133zM32.119 32.26H17.292c-5.98-.52-7.924-6.176-7.924-6.176h21.39a21.6 21.6 0 001.36 6.175zm5.353 6.175H25.557c-6.157-.415-8.16-4.94-8.16-4.94h15.97a19.955 19.955 0 004.105 4.94zm-6.091-15.151v.33H12.023c-6.043-.519-8.008-6.176-8.008-6.176h28.103c-.49 1.839-.737 3.819-.737 5.846z" fill="#48494D"/><path d="M69.806 11.63c-2.25-3.448-5.2-5.308-8.3-5.308-1.849 0-3.649.68-5.298 1.996 1.1.862 2.1 1.951 3 3.312 2.449 3.675 3.799 8.574 3.799 13.836 0 5.262-1.35 10.162-3.8 13.836-.9 1.361-1.9 2.495-3 3.312 1.65 1.316 3.45 1.996 5.3 1.996 3.05 0 5.999-1.905 8.299-5.308 2.45-3.674 3.8-8.573 3.8-13.836 0-5.262-1.35-10.161-3.8-13.836z" fill="#FF7931"/><path d="M61.56.147c-9.622 0-17.397 11.344-17.397 25.32 0 13.975 7.824 25.319 17.398 25.319 9.622 0 17.397-11.344 17.397-25.32C79.007 11.491 71.183.147 61.561.147zm8.262 38.977c-2.187 3.449-5.054 5.309-8.067 5.309-2.964 0-5.832-1.906-8.067-5.309-2.381-3.675-3.693-8.576-3.693-13.84 0-5.263 1.312-10.163 3.693-13.839 2.187-3.448 5.054-5.309 8.067-5.309 2.964 0 5.831 1.906 8.067 5.31 2.381 3.675 3.693 8.575 3.693 13.839 0 5.218-1.312 10.164-3.693 13.84z" fill="#48494D"/><path d="M45.13 25.466C45.13 11.718 53.022.51 62.9.147h-.51c-10.08 0-18.226 11.344-18.226 25.32 0 13.975 8.197 25.319 18.227 25.319h.509c-9.877-.364-17.769-11.571-17.769-25.32z" fill="#FF7931"/><path d="M61.343 45.662h-.631l-.194-.046-.193-.046h-.194l-.436-.092c-.049 0-.146-.046-.194-.046l-.194-.045-.194-.046a.376.376 0 01-.194-.092l-.388-.138-.387-.183c-.049-.046-.146-.046-.194-.092l-.194-.091c-.097-.046-.242-.138-.34-.184l-.339-.229-.194-.092-.145-.137-.34-.23-.29-.274-.582-.55a14.178 14.178 0 01-2.035-2.43c-.582-.872-1.067-1.789-1.503-2.706-.436-.963-.776-1.926-1.115-2.888-.145-.505-.29-.963-.436-1.468l-.194-.733c-.048-.23-.097-.505-.145-.734a31.873 31.873 0 01-.582-6.098c0-1.009.049-2.017.145-3.072.097-1.009.243-2.017.437-3.026.048-.23.097-.504.145-.734l.194-.733c.145-.505.242-1.009.436-1.467.291-.963.679-1.926 1.115-2.889.436-.917.92-1.834 1.503-2.705a14.178 14.178 0 012.035-2.43l.582-.55.29-.275.34-.23.145-.137.194-.092.34-.23c.096-.045.242-.137.339-.183l.194-.091c.048-.046.145-.046.194-.092l.387-.183.388-.138c.049-.046.146-.046.194-.092l.194-.046.194-.045c.048 0 .145-.046.194-.046l.436-.092h.194l.194-.046.193-.046h1.261l.194.046.193.046h.194l.436.092c.049 0 .146.046.194.046l.194.045.194.046c.048 0 .145.046.194.046l.388.138.387.183c.049.046.146.046.194.092l.194.092c.146.045.242.137.388.183l.34.23.193.09.146.138.339.23c.097.091.194.183.34.275.241.183.435.367.63.55a12.543 12.543 0 012.083 2.43 17.34 17.34 0 011.6 2.705c.436.963.824 1.926 1.163 2.889.34 1.008.582 1.971.824 3.026.194 1.009.388 2.017.485 3.072a32.59 32.59 0 010 6.144c-.097 1.008-.243 2.063-.485 3.072-.436 2.017-1.066 4.035-1.987 5.914-.436.963-1.018 1.834-1.6 2.705-.63.872-1.308 1.697-2.084 2.43a7.325 7.325 0 01-.63.55c-.097.092-.194.184-.34.276l-.338.23-.146.137-.194.091-.34.23c-.145.045-.241.137-.387.183l-.194.092c-.048.045-.145.045-.194.091l-.387.184-.388.137c-.048 0-.145.046-.194.046l-.194.046-.194.046c-.048 0-.145.046-.194.046l-.436.091h-.194l-.194.046-.193.046h-.194l-.437-.183zm0-.78h.581l.194-.046.194-.045h.194l.388-.092c.048 0 .096-.046.193-.046l.194-.046.194-.046c.049 0 .097-.045.194-.045l.34-.138.339-.138c.048-.046.097-.046.193-.091l.146-.092c.097-.046.242-.138.34-.183l.338-.184.146-.091.145-.092.291-.23c.097-.091.194-.137.29-.229a5.47 5.47 0 00.583-.504 12.458 12.458 0 001.89-2.293 23.087 23.087 0 001.454-2.613 19.65 19.65 0 001.066-2.797c.145-.458.29-.963.388-1.421l.194-.734c.048-.23.097-.504.145-.733.194-.963.34-1.972.436-2.935a30.682 30.682 0 000-5.96 28.64 28.64 0 00-.436-2.935c-.048-.229-.097-.504-.145-.733l-.194-.734c-.145-.504-.242-.963-.388-1.421a19.65 19.65 0 00-1.066-2.797 23.087 23.087 0 00-1.454-2.614 12.459 12.459 0 00-1.89-2.292c-.194-.184-.34-.367-.582-.504a1.27 1.27 0 00-.291-.23l-.29-.229-.146-.092-.146-.091-.339-.184c-.097-.046-.242-.137-.34-.183l-.145-.092c-.048-.046-.096-.046-.193-.092l-.34-.137-.339-.138c-.048 0-.097-.046-.194-.046l-.194-.045-.194-.046c-.048 0-.097-.046-.194-.046l-.387-.092h-.194l-.194-.046-.194-.045H60.18l-.388.091c-.048 0-.145.046-.193.046l-.194.046-.194.046c-.049 0-.097.046-.194.046l-.34.137-.339.138c-.048.046-.097.046-.193.091l-.146.092c-.097.046-.242.138-.34.184l-.338.183-.146.092-.145.091-.291.23c-.097.091-.194.137-.29.229a5.47 5.47 0 00-.583.504c-.775.688-1.405 1.467-1.987 2.293a17.947 17.947 0 00-1.55 2.613c-.437.917-.825 1.834-1.116 2.797a20.19 20.19 0 00-.775 2.934 31.527 31.527 0 00-.436 2.98 31.628 31.628 0 000 6.053c.097 1.009.242 2.017.436 2.98a22.325 22.325 0 001.939 5.731c.436.917.97 1.788 1.55 2.614a15.383 15.383 0 001.988 2.292c.194.184.388.321.582.505.097.091.194.137.29.229l.291.23.146.09.145.093.34.183c.096.046.242.137.339.183l.145.092c.048.046.097.046.194.092l.34.137.339.138c.048 0 .096.046.193.046l.194.046.194.045c.049 0 .097.046.194.046l.388.092h.774l.34-.092z" fill="#fff"/><path d="M60.222 50.785h-17.66c-9.477 0-17.135-11.343-17.135-25.319 0-13.975 7.706-25.319 17.135-25.319h17.66c-9.476 0-17.134 11.344-17.134 25.32 0 13.975 7.658 25.319 17.134 25.319z" fill="#FF7931"/><path d="M45.071 37.342c-.478-1.317-.86-2.724-1.195-4.132-.239-1.227-.478-2.453-.621-3.725a31.953 31.953 0 01-.191-3.724v-.272c0-1.226.048-2.453.191-3.679.143-1.59.43-3.088.765-4.587 1.338-5.813 4.11-10.672 7.647-13.715.908-.772 1.912-1.454 2.916-1.953.812-.409 1.672-.772 2.533-1a11.773 11.773 0 012.533-.408h.573-18.21a12.27 12.27 0 00-2.533.409c-.86.227-1.72.59-2.533.999-1.004.545-2.007 1.18-2.915 1.953-3.537 3.043-6.31 7.902-7.648 13.715-.334 1.454-.573 2.998-.765 4.587-.095 1.181-.19 2.407-.19 3.679v.272c0 1.272.095 2.498.19 3.724.144 1.272.335 2.544.622 3.725a35.134 35.134 0 001.195 4.132c2.867 7.994 8.555 13.444 15.103 13.444h17.637c-6.548 0-12.236-5.45-15.104-13.444z" fill="#FF7931"/><path d="M61.428 51.17c-.346 0-.742 0-1.088-.045-2.623-.137-5.245-.046-7.868-.092a5.371 5.371 0 01-1.237-.274c2.82.091 4.948.137 7.868.183a8.448 8.448 0 01-1.04-.229c-.197-.045-.544 0-.742 0a871.127 871.127 0 01-7.075-.228c-.396-.137-.792-.32-1.188-.503 2.82.137 4.948.228 7.818.32-.346-.137-.693-.274-.99-.457-.198-.046-.544-.046-.742-.046-3.068-.137-6.086-.32-7.026-.366-.396-.228-.742-.457-1.138-.686 2.77.183 4.948.32 7.768.458-.297-.183-.643-.412-.94-.595-.198-.091-.495-.045-.742-.045-3.018-.183-6.037-.412-7.026-.458-.347-.274-.693-.594-1.04-.868 2.772.228 4.85.365 7.72.594-.297-.229-.594-.503-.891-.777-.198-.092-.495-.046-.742-.046-3.019-.229-5.79-.503-6.977-.594-.346-.32-.643-.686-.94-1.052 3.117.274 5.344.503 7.67.686-.298-.274-.545-.594-.792-.915-3.167-.32-5.047-.502-7.62-.731a18.185 18.185 0 01-.841-1.235c3.117.32 5.294.55 7.57.823a7.962 7.962 0 01-.693-1.051c-3.117-.32-5.047-.549-7.57-.869l-.742-1.371c2.622.32 4.849.594 7.52.914a28.87 28.87 0 01-.593-1.189c-3.068-.366-4.948-.594-7.472-.96-.198-.503-.445-1.006-.643-1.509 2.623.366 4.75.64 7.422 1.006-.198-.411-.346-.869-.495-1.28-3.018-.411-4.997-.686-7.372-1.006a19.755 19.755 0 01-.495-1.6c2.672.411 4.602.686 7.323 1.052-.148-.458-.247-.915-.396-1.372-2.573-.366-4.602-.686-7.323-1.097-.148-.549-.247-1.143-.346-1.738 2.82.457 4.354.686 7.273 1.143-.099-.503-.198-.96-.247-1.463-2.969-.457-4.7-.731-7.224-1.143a21.86 21.86 0 01-.198-1.783c3.068.503 4.404.732 7.125 1.189l-.148-1.509c-2.97-.503-4.652-.777-7.076-1.189v-1.874c5.888 1.006 5.888 1.006 7.026 1.234v-1.6a821.71 821.71 0 01-6.977-1.189c.05-.594.1-1.234.149-1.828 2.721.457 4.75.823 6.927 1.188l.148-1.508c-2.968-.503-4.304-.732-6.877-1.144.099-.594.198-1.188.297-1.737.049-.229.099-.503.148-.732-.05.23-.099.458-.148.732 2.968.503 3.909.64 6.828 1.143.099-.503.198-.96.297-1.463a348.45 348.45 0 00-6.78-1.097c.15-.549.298-1.098.446-1.646 2.771.457 4.107.64 6.73 1.051.148-.457.247-.914.396-1.371-2.227-.366-4.454-.686-6.68-1.052.197-.503.395-1.051.593-1.554 2.722.411 4.404.64 6.63 1.005.15-.41.347-.868.496-1.28-2.87-.411-4.949-.731-6.63-.96.247-.503.445-.96.741-1.417 2.722.366 4.157.594 6.581.914.198-.411.396-.777.644-1.188-2.722-.366-4.404-.595-6.532-.87.247-.456.544-.868.841-1.28.1-.182.248-.32.347-.502-.149.183-.248.32-.347.503 2.672.32 4.256.548 6.482.823.248-.366.495-.686.693-1.052-2.672-.32-4.453-.549-6.482-.777.297-.366.594-.732.94-1.097 2.623.274 4.255.457 6.433.685.247-.32.544-.64.791-.914a623.414 623.414 0 00-6.383-.64c.347-.32.693-.64 1.04-.914 2.622.228 4.255.411 6.382.594.297-.274.594-.503.891-.777-2.622-.229-4.354-.366-6.334-.549.347-.274.743-.503 1.09-.732 2.572.183 4.155.32 6.333.458.297-.229.643-.412.94-.595-2.573-.183-4.256-.274-6.284-.411l1.187-.549c2.573.137 4.157.229 6.284.32.347-.137.644-.32.99-.411C54.5.97 52.819.924 50.839.832c.396-.137.842-.228 1.237-.32 2.573.046 4.157.138 6.235.183.346-.091.693-.183 1.039-.228C56.777.42 55.144.375 53.115.329c.446-.045.94-.091 1.386-.091h-1.534c-9.797 0-17.714 11.43-17.714 25.512s7.966 25.512 17.714 25.512h1.534l-.841-.046c3.117-.046 5.294-.046 7.768-.046z" fill="#48494D"/><path d="M33.62 25.659C33.62 11.577 41.587.147 51.334.147H49.8c-.494 0-.99.046-1.435.091-3.216.046-5.393.092-7.422.138a8.457 8.457 0 00-1.039.228c3.513-.091 6.037-.137 7.373-.183-.396.092-.841.183-1.237.32-3.216.092-5.492.183-7.373.275-.346.137-.693.274-.99.411 3.068-.137 5.345-.228 7.324-.32-.396.183-.792.32-1.188.549-3.166.137-5.443.274-7.323.366-.297.182-.643.365-.94.594a630.97 630.97 0 007.323-.457 8.764 8.764 0 00-1.088.731c-3.167.229-5.344.366-7.274.503-.297.229-.594.503-.89.777 3.166-.274 5.343-.411 7.273-.548-.346.274-.693.594-1.04.914-3.117.274-5.393.457-7.223.64-.297.275-.545.595-.792.915 3.167-.32 5.294-.503 7.175-.686-.297.366-.644.731-.94 1.097-3.118.32-5.146.503-7.175.732a7.89 7.89 0 00-.693 1.051c2.969-.32 5.195-.548 7.125-.777-.297.411-.544.823-.84 1.28-3.118.366-4.9.549-7.077.823-.198.366-.445.777-.643 1.189 3.117-.366 5.097-.64 7.076-.869-.248.457-.495.915-.693 1.418-3.068.365-5.146.64-7.026.914-.198.411-.346.823-.495 1.28 2.92-.411 5.195-.686 6.977-.914-.198.503-.396 1.005-.594 1.554-3.266.457-5.74.823-6.927.96-.149.457-.297.915-.396 1.372 2.92-.412 5.096-.732 6.927-1.006l-.445 1.646c-2.969.457-4.998.732-6.878 1.051-.099.458-.198.96-.297 1.464l6.828-1.052c-.098.594-.197 1.143-.296 1.737-2.92.458-4.8.778-6.78 1.098l-.148 1.508c3.217-.548 5.84-.96 6.73-1.097-.05.595-.1 1.189-.149 1.829-3.117.549-5.591.96-6.68 1.143v1.6c2.227-.366 4.404-.777 6.63-1.143v.457c0 .458 0 .96.05 1.418-3.216.548-5.74 1.006-6.58 1.143l.148 1.509c1.979-.32 4.156-.686 6.531-1.098.05.595.1 1.189.198 1.783-1.187.183-3.563.595-6.482 1.098.1.502.149.96.248 1.463 2.968-.503 5.047-.823 6.432-1.052.099.594.198 1.143.346 1.737-3.067.503-5.541.915-6.383 1.006.1.458.248.915.396 1.372 2.92-.457 5.047-.777 6.334-1.006.148.549.297 1.097.495 1.6-2.82.412-4.305.64-6.284.96.148.458.346.87.494 1.28 2.92-.41 4.899-.73 6.235-.914.198.503.396 1.006.643 1.509-2.721.411-4.552.64-6.185.869.198.411.396.777.594 1.188 2.87-.411 4.948-.685 6.185-.868l.742 1.371c.1.183.198.366.346.549-.098-.183-.247-.366-.346-.549-2.721.366-4.602.595-6.135.823.247.366.445.732.692 1.052 2.87-.366 4.948-.595 6.086-.777.297.411.545.823.842 1.234-2.524.32-4.404.503-6.087.686.248.32.545.64.792.914 2.623-.274 4.404-.457 6.037-.64.297.366.643.732.94 1.052-2.623.274-4.354.457-5.987.594.297.274.593.549.89.777 2.573-.228 4.454-.411 5.988-.548.346.32.692.594 1.039.868.099.046.148.138.247.183-.099-.045-.148-.137-.247-.183-2.623.229-4.355.366-5.938.503.297.229.643.412.94.595a343.16 343.16 0 005.938-.457c.346.228.742.457 1.138.685-2.82.183-4.85.32-5.888.366.346.137.643.32.99.457 2.572-.137 4.403-.228 5.887-.32.396.183.792.32 1.188.503-2.77.137-4.85.183-5.888.229.346.091.693.183 1.039.228 2.523-.045 4.305-.137 5.839-.182.395.09.84.182 1.237.274-2.771.046-4.75.091-5.84.091.347.046.743.046 1.09.046h.049c2.721 0 4.651 0 5.79-.046.247 0 .544.046.79.046h1.535c-9.748 0-17.665-11.43-17.665-25.512z" fill="#48494D"/><path d="M88.227 16.387c4.114-1.82 5.601-5.73 5.65-5.957l.596-1.637H66.914l1.487 1.955c1.289 1.728 2.33 3.638 3.024 5.639l.247.727.199.819c.446 1.728.694 3.547.694 5.32V24.3l-.05.773c-.149 1.91-.644 3.82-1.338 5.64l-.248.636-.297.591c-.942 2.046.693 3.956-.893 5.639l-1.834 2.092h5.305c6.89-.546 9.17-6.549 9.269-6.821l.148-.455h.05c6.89-.546 9.17-6.548 9.269-6.821l.396-1.046c5.502-1.319 7.336-6.321 7.435-6.549l.595-1.637H88.227v.046z" fill="#fff"/><path d="M65.576 8.793a25.798 25.798 0 013.135 6.175h25.135c5.933-.518 7.863-6.175 7.863-6.175H65.576zM69.59 32.26h14.827c5.98-.52 7.924-6.176 7.924-6.176h-21.39c-.194 2.168-.631 4.242-1.36 6.175zm-4.014 6.175H77.49c6.157-.415 8.16-4.94 8.16-4.94H69.68c-1.05 1.772-2.452 3.469-4.104 4.94zm4.702-15.151v.33h19.407c6.044-.519 8.01-6.176 8.01-6.176H69.59c.442 1.839.688 3.819.688 5.846z" fill="#FF7931"/></symbol></svg>