<svg xmlns="http://www.w3.org/2000/svg" xmlns:xlink="http://www.w3.org/1999/xlink"><symbol id="auto-icon" viewBox="0 0 44 65">
<path d="M35 8.00002C35 8.00002 35 10.3 35.9 11.9C36.5 12.9 39.6 17.3 41.5 19.6C42.7 21 42.4 22.4 42.4 22.7V61.4C42.4 62.3 41.6 62.9 40.5 62.9H3.4C2.4 62.9 2 62.3 2 61.4V28.4C2 25.3 3 22.4 6 20.4L24.1 11.8C25.6 11.1 26.6 9.80002 26.7 8.40002C26.7 8.20002 26.7 8.10002 26.7 7.90002H35V8.00002Z" stroke="white" stroke-width="3" stroke-miterlimit="10"/>
<path d="M35 8.5H26C25.4 8.5 25 8 25 7.5V3C25 2.4 25.5 2 26 2H35C35.6 2 36 2.5 36 3V7.5C36 8 35.5 8.5 35 8.5Z" stroke="white" stroke-width="3" stroke-miterlimit="10"/>
<path d="M17 46.5H37" stroke="white" stroke-width="3" stroke-miterlimit="10"/>
<path d="M17 54.5H30" stroke="white" stroke-width="3" stroke-miterlimit="10"/>
</symbol><symbol id="bag-icon" viewBox="0 0 22 26">
<path d="M1 6.53846V25H21V6.53846H1ZM5.54545 6.53846C5.54545 6.53846 5.54545 1 11 1C16.4545 1 16.4545 6.53846 16.4545 6.53846" fill="#FF7931"/>
<path d="M5.54545 6.53846C5.54545 6.53846 5.54545 1 11 1C16.4545 1 16.4545 6.53846 16.4545 6.53846M1 6.53846V25H21V6.53846H1Z" stroke="white" stroke-width="2" stroke-linecap="round" stroke-linejoin="round"/>
</symbol><symbol id="battery-icon" viewBox="0 0 62 49">
<rect x="5" y="20" width="52" height="28" stroke="white" stroke-width="2"/>
<rect x="1" y="10" width="60" height="5" rx="2.5" stroke="white" stroke-width="2"/>
<rect x="16" y="1" width="30" height="4" stroke="white" stroke-width="2"/>
<path d="M7 2.5C7 1.11929 8.11929 0 9.5 0C10.8807 0 12 1.11929 12 2.5V6H7V2.5Z" fill="white"/>
<path d="M50 3C50 1.34315 51.3431 0 53 0C54.6569 0 56 1.34315 56 3V6H50V3Z" fill="white"/>
<rect x="42.7437" y="28.0853" width="1.79268" height="11.3537" rx="0.896341" fill="white"/>
<rect x="37.9634" y="34.6585" width="1.79268" height="11.3537" rx="0.896341" transform="rotate(-90 37.9634 34.6585)" fill="white"/>
<rect x="13" y="35" width="2" height="11" rx="1" transform="rotate(-90 13 35)" fill="white"/>
</symbol><symbol id="burger-icon" viewBox="0 0 33 28">
<rect y="0.831909" width="33" height="3" rx="1.5" fill="#C4C4C4"/>
<rect y="12.8319" width="33" height="3" rx="1.5" fill="#C4C4C4"/>
<rect y="24.8319" width="33" height="3" rx="1.5" fill="#C4C4C4"/>
</symbol><symbol id="cart-icon" viewBox="0 0 30 28">
<path d="M0 1.93616H3.88425C4.33141 1.93616 4.72423 2.23303 4.84628 2.66321L9.07372 17.5635C9.19577 17.9937 9.58859 18.2906 10.0358 18.2906H24.7568C25.2075 18.2906 25.6025 17.9892 25.7214 17.5545L28.6542 6.83436C28.8283 6.19804 28.3494 5.57048 27.6897 5.57048H5.67111" stroke="#A8A8A8" stroke-width="2"/>
<path d="M15 23.9125C15 25.3568 13.8602 26.49 12.5 26.49C11.1398 26.49 10 25.3568 10 23.9125C10 22.4682 11.1398 21.335 12.5 21.335C13.8602 21.335 15 22.4682 15 23.9125Z" stroke="#A8A8A8" stroke-width="2"/>
<path d="M24 23.9125C24 25.3568 22.8602 26.49 21.5 26.49C20.1398 26.49 19 25.3568 19 23.9125C19 22.4682 20.1398 21.335 21.5 21.335C22.8602 21.335 24 22.4682 24 23.9125Z" stroke="#A8A8A8" stroke-width="2"/>
</symbol><symbol id="heart-icon" viewBox="0 0 27 25">
<path fill-rule="evenodd" clip-rule="evenodd" d="M7.36656 1.2063C3.47849 1.2063 0.392496 4.77288 1.10209 9.89202C1.71793 14.3349 12.3223 23.2063 13.5 23.2063C14.6777 23.2063 25.2821 14.3349 25.8979 9.89202C26.6075 4.77277 23.5215 1.2063 19.6334 1.2063C17.0414 1.2063 15.0222 2.2961 13.5 4.47569C11.9778 2.2961 9.9586 1.2063 7.36656 1.2063Z" stroke="#A8A8A8" stroke-width="2"/>
</symbol><symbol id="pin-icon" viewBox="0 0 35 35">
<path d="M13.6561 23.7113L12.8073 24.24L13.6561 23.7113C13.372 23.2552 12.9164 22.9327 12.392 22.8163L12.1752 23.7925L12.3919 22.8163L1.49747 20.3979L23.9518 7.82864L19.5566 33.1835L13.6561 23.7113Z" stroke="#A8A8A8" stroke-width="2"/>
</symbol><symbol id="spares-icon" viewBox="0 0 56 55">
<circle cx="28" cy="27.5" r="26.5" stroke="white" stroke-width="2"/>
<circle cx="28.0002" cy="27.5" r="13.3478" stroke="white" stroke-width="2"/>
<circle cx="8.27184" cy="28.0978" r="2.98913" fill="white"/>
<circle cx="47.7284" cy="28.0978" r="2.98913" fill="white"/>
<circle cx="43.5436" cy="15.5435" r="2.3913" fill="white"/>
<circle cx="33.9782" cy="8.36951" r="2.3913" fill="white"/>
<circle cx="22.0217" cy="8.36951" r="2.3913" fill="white"/>
<circle cx="12.4562" cy="15.5435" r="2.3913" fill="white"/>
<circle r="2.3913" transform="matrix(-1 0 0 1 43.5428 39.4565)" fill="white"/>
<circle r="2.3913" transform="matrix(-1 0 0 1 33.9773 46.6304)" fill="white"/>
<circle r="2.3913" transform="matrix(-1 0 0 1 22.0208 46.6304)" fill="white"/>
<circle r="2.3913" transform="matrix(-1 0 0 1 12.4559 39.4565)" fill="white"/>
</symbol><symbol id="timer-icon" viewBox="0 0 28 28">
<path fill-rule="evenodd" clip-rule="evenodd" d="M25.2 13.985C25.2 8.26735 20.9248 3.54933 15.4 2.85965V6.04525C15.4 6.81928 14.7732 7.44675 14 7.44675C13.2268 7.44675 12.6 6.81928 12.6 6.04525V2.30986C12.6 0.943199 13.7847 -0.0309289 14.9364 0.000750769C15.0048 0.0026329 15.0729 0.00895811 15.1409 0.0152728C15.1635 0.0173713 15.1861 0.0194688 15.2087 0.0214016C22.3748 0.63485 28 6.65228 28 13.985C28 21.7253 21.732 28 14 28C6.26801 28 0 21.7253 0 13.985C0 10.2186 1.49285 6.68527 4.10051 4.07481C4.64724 3.52749 5.53367 3.52749 6.08041 4.07481C6.62714 4.62213 6.62714 5.50952 6.08041 6.05684C3.99265 8.14685 2.8 10.9696 2.8 13.985C2.8 20.1772 7.81441 25.197 14 25.197C20.1856 25.197 25.2 20.1772 25.2 13.985ZM12.3929 15.6795C12.2632 15.5496 12.1519 15.4083 12.0591 15.2587L12.0563 15.2615L7.41486 7.77871C7.33329 7.6472 7.37366 7.47438 7.50503 7.39272C7.59549 7.33649 7.70998 7.33649 7.80044 7.39272L15.275 12.039L15.2722 12.0419C15.4217 12.1348 15.563 12.2462 15.6928 12.3762C16.604 13.2884 16.604 14.7673 15.6928 15.6795C14.7816 16.5917 13.3042 16.5917 12.3929 15.6795Z" fill="#C4C4C4"/>
</symbol><symbol id="tires-icon" viewBox="0 0 65 65">
<path d="M32.5 64C49.897 64 64 49.897 64 32.5C64 15.103 49.897 1 32.5 1C15.103 1 1 15.103 1 32.5C1 49.897 15.103 64 32.5 64Z" stroke="white" stroke-width="2" stroke-miterlimit="10"/>
<path d="M32.5002 56.7053C45.8684 56.7053 56.7054 45.8682 56.7054 32.5C56.7054 19.1318 45.8684 8.29474 32.5002 8.29474C19.132 8.29474 8.29492 19.1318 8.29492 32.5C8.29492 45.8682 19.132 56.7053 32.5002 56.7053Z" stroke="white" stroke-width="2" stroke-miterlimit="10"/>
<path d="M32.4999 42.3368C37.9327 42.3368 42.3368 37.9327 42.3368 32.5C42.3368 27.0673 37.9327 22.6631 32.4999 22.6631C27.0672 22.6631 22.6631 27.0673 22.6631 32.5C22.6631 37.9327 27.0672 42.3368 32.4999 42.3368Z" stroke="white" stroke-width="2" stroke-miterlimit="10"/>
<path d="M32.4998 37.8053C35.4908 37.8053 37.9156 35.3805 37.9156 32.3895C37.9156 29.3984 35.4908 26.9737 32.4998 26.9737C29.5087 26.9737 27.084 29.3984 27.084 32.3895C27.084 35.3805 29.5087 37.8053 32.4998 37.8053Z" stroke="white" stroke-width="2" stroke-miterlimit="10"/>
<path d="M24.8737 9.51056C25.0948 10.5053 25.3158 11.6106 25.3158 12.6053C25.3158 19.5685 19.679 25.2053 12.7158 25.2053C11.6106 25.2053 10.6158 25.0948 9.62109 24.7632" stroke="white" stroke-width="2" stroke-miterlimit="10"/>
<path d="M40.1262 9.51056C39.9051 10.5053 39.6841 11.6106 39.6841 12.6053C39.6841 19.5685 45.3209 25.2053 52.2841 25.2053C53.3893 25.2053 54.3841 25.0948 55.3788 24.7632" stroke="white" stroke-width="2" stroke-miterlimit="10"/>
<path d="M24.8737 55.4894C25.0948 54.4947 25.3158 53.3894 25.3158 52.3947C25.3158 45.4315 19.679 39.7947 12.7158 39.7947C11.6106 39.7947 10.6158 39.9052 9.62109 40.2368" stroke="white" stroke-width="2" stroke-miterlimit="10"/>
<path d="M40.1262 55.4895C39.9051 54.4947 39.6841 53.3895 39.6841 52.3947C39.6841 45.4316 45.3209 39.7947 52.2841 39.7947C53.3893 39.7947 54.3841 39.9053 55.3788 40.2368" stroke="white" stroke-width="2" stroke-miterlimit="10"/>
</symbol><symbol id="user-icon" viewBox="0 0 24 26">
<path d="M12 14.9925C14.75 14.9925 17.5 12.7854 17.5 8.62105C17.5 4.45673 15.6667 1.95813 12 1.95813C8.33333 1.95813 6.5 5.33123 6.5 8.62105C6.5 12.7854 9.25 14.9925 12 14.9925ZM12 14.9925C17.5 14.9925 23 19.3858 23 24.4455H1C1 19.948 6.5 14.9925 12 14.9925Z" stroke="#A8A8A8" stroke-width="2" stroke-linecap="round" stroke-linejoin="round"/>
</symbol></svg>