<svg width="28" height="28" fill="none" xmlns="http://www.w3.org/2000/svg"><path fill-rule="evenodd" clip-rule="evenodd" d="M25.2 13.985A11.21 11.21 0 0015.4 2.86v3.185a1.4 1.4 0 11-2.8 0V2.31C12.6.943 13.785-.03 14.936 0c.069.003.137.009.205.015l.068.006C22.375.635 28 6.652 28 13.985 28 21.725 21.732 28 14 28S0 21.725 0 13.985c0-3.766 1.493-7.3 4.1-9.91a1.399 1.399 0 011.98 0 1.403 1.403 0 010 1.982 11.177 11.177 0 00-3.28 7.928c0 6.192 5.014 11.212 11.2 11.212 6.186 0 11.2-5.02 11.2-11.212zM12.393 15.68a2.344 2.344 0 01-.334-.421l-.003.002L7.415 7.78a.28.28 0 01.385-.386l7.475 4.646-.003.003a2.337 2.337 0 01.42 3.638 2.332 2.332 0 01-3.3 0z" fill="#C4C4C4"/></svg>