<svg width="42" height="42" viewBox="0 0 42 42" fill="none" xmlns="http://www.w3.org/2000/svg">
<path d="M20.6183 40.103C31.3793 40.103 40.1029 31.3795 40.1029 20.6185C40.1029 9.8575 31.3793 1.13397 20.6183 1.13397C9.85731 1.13397 1.13379 9.8575 1.13379 20.6185C1.13379 31.3795 9.85731 40.103 20.6183 40.103Z" stroke="white" stroke-width="2" stroke-miterlimit="10"/>
<path d="M20.6193 35.5909C28.8883 35.5909 35.5916 28.8876 35.5916 20.6186C35.5916 12.3496 28.8883 5.64624 20.6193 5.64624C12.3503 5.64624 5.64697 12.3496 5.64697 20.6186C5.64697 28.8876 12.3503 35.5909 20.6193 35.5909Z" stroke="white" stroke-width="2" stroke-miterlimit="10"/>
<path d="M20.6188 26.703C23.9793 26.703 26.7035 23.9788 26.7035 20.6184C26.7035 17.2579 23.9793 14.5337 20.6188 14.5337C17.2584 14.5337 14.5342 17.2579 14.5342 20.6184C14.5342 23.9788 17.2584 26.703 20.6188 26.703Z" stroke="white" stroke-width="2" stroke-miterlimit="10"/>
<path d="M20.6185 23.9C22.4687 23.9 23.9685 22.4002 23.9685 20.55C23.9685 18.6999 22.4687 17.2 20.6185 17.2C18.7684 17.2 17.2686 18.6999 17.2686 20.55C17.2686 22.4002 18.7684 23.9 20.6185 23.9Z" stroke="white" stroke-width="2" stroke-miterlimit="10"/>
<path d="M15.9019 6.39828C16.0386 7.01359 16.1754 7.69725 16.1754 8.31256C16.1754 12.6197 12.6887 16.1064 8.38156 16.1064C7.69789 16.1064 7.08259 16.038 6.46729 15.8329" stroke="white" stroke-width="2" stroke-miterlimit="10"/>
<path d="M25.3365 6.39819C25.1997 7.01349 25.063 7.69716 25.063 8.31246C25.063 12.6196 28.5497 16.1063 32.8568 16.1063C33.5405 16.1063 34.1558 16.0379 34.7711 15.8328" stroke="white" stroke-width="2" stroke-miterlimit="10"/>
<path d="M15.9019 34.8388C16.0386 34.2235 16.1754 33.5398 16.1754 32.9245C16.1754 28.6174 12.6887 25.1307 8.38156 25.1307C7.69789 25.1307 7.08259 25.1991 6.46729 25.4042" stroke="white" stroke-width="2" stroke-miterlimit="10"/>
<path d="M25.3365 34.8387C25.1997 34.2234 25.063 33.5397 25.063 32.9244C25.063 28.6173 28.5497 25.1306 32.8568 25.1306C33.5405 25.1306 34.1558 25.199 34.7711 25.4041" stroke="white" stroke-width="2" stroke-miterlimit="10"/>
</svg>
