<svg width="102" height="52" fill="none" xmlns="http://www.w3.org/2000/svg"><path d="M36.133 8.793a25.798 25.798 0 00-3.135 6.175H7.864C1.93 14.45 0 8.793 0 8.793h36.133zM32.119 32.26H17.292c-5.98-.52-7.924-6.176-7.924-6.176h21.39a21.6 21.6 0 001.36 6.175zm5.353 6.175H25.557c-6.157-.415-8.16-4.94-8.16-4.94h15.97a19.955 19.955 0 004.105 4.94zm-6.091-15.151v.33H12.023c-6.043-.519-8.008-6.176-8.008-6.176h28.103c-.49 1.839-.737 3.819-.737 5.846z" fill="#48494D"/><path d="M69.806 11.63c-2.25-3.448-5.2-5.308-8.3-5.308-1.849 0-3.649.68-5.298 1.996 1.1.862 2.1 1.951 3 3.312 2.449 3.675 3.799 8.574 3.799 13.836 0 5.262-1.35 10.162-3.8 13.836-.9 1.361-1.9 2.495-3 3.312 1.65 1.316 3.45 1.996 5.3 1.996 3.05 0 5.999-1.905 8.299-5.308 2.45-3.674 3.8-8.573 3.8-13.836 0-5.262-1.35-10.161-3.8-13.836z" fill="#FF7931"/><path d="M61.56.147c-9.622 0-17.397 11.344-17.397 25.32 0 13.975 7.824 25.319 17.398 25.319 9.622 0 17.397-11.344 17.397-25.32C79.007 11.491 71.183.147 61.561.147zm8.262 38.977c-2.187 3.449-5.054 5.309-8.067 5.309-2.964 0-5.832-1.906-8.067-5.309-2.381-3.675-3.693-8.576-3.693-13.84 0-5.263 1.312-10.163 3.693-13.839 2.187-3.448 5.054-5.309 8.067-5.309 2.964 0 5.831 1.906 8.067 5.31 2.381 3.675 3.693 8.575 3.693 13.839 0 5.218-1.312 10.164-3.693 13.84z" fill="#48494D"/><path d="M45.13 25.466C45.13 11.718 53.022.51 62.9.147h-.51c-10.08 0-18.226 11.344-18.226 25.32 0 13.975 8.197 25.319 18.227 25.319h.509c-9.877-.364-17.769-11.571-17.769-25.32z" fill="#FF7931"/><path d="M61.343 45.662h-.631l-.194-.046-.193-.046h-.194l-.436-.092c-.049 0-.146-.046-.194-.046l-.194-.045-.194-.046a.376.376 0 01-.194-.092l-.388-.138-.387-.183c-.049-.046-.146-.046-.194-.092l-.194-.091c-.097-.046-.242-.138-.34-.184l-.339-.229-.194-.092-.145-.137-.34-.23-.29-.274-.582-.55a14.178 14.178 0 01-2.035-2.43c-.582-.872-1.067-1.789-1.503-2.706-.436-.963-.776-1.926-1.115-2.888-.145-.505-.29-.963-.436-1.468l-.194-.733c-.048-.23-.097-.505-.145-.734a31.873 31.873 0 01-.582-6.098c0-1.009.049-2.017.145-3.072.097-1.009.243-2.017.437-3.026.048-.23.097-.504.145-.734l.194-.733c.145-.505.242-1.009.436-1.467.291-.963.679-1.926 1.115-2.889.436-.917.92-1.834 1.503-2.705a14.178 14.178 0 012.035-2.43l.582-.55.29-.275.34-.23.145-.137.194-.092.34-.23c.096-.045.242-.137.339-.183l.194-.091c.048-.046.145-.046.194-.092l.387-.183.388-.138c.049-.046.146-.046.194-.092l.194-.046.194-.045c.048 0 .145-.046.194-.046l.436-.092h.194l.194-.046.193-.046h1.261l.194.046.193.046h.194l.436.092c.049 0 .146.046.194.046l.194.045.194.046c.048 0 .145.046.194.046l.388.138.387.183c.049.046.146.046.194.092l.194.092c.146.045.242.137.388.183l.34.23.193.09.146.138.339.23c.097.091.194.183.34.275.241.183.435.367.63.55a12.543 12.543 0 012.083 2.43 17.34 17.34 0 011.6 2.705c.436.963.824 1.926 1.163 2.889.34 1.008.582 1.971.824 3.026.194 1.009.388 2.017.485 3.072a32.59 32.59 0 010 6.144c-.097 1.008-.243 2.063-.485 3.072-.436 2.017-1.066 4.035-1.987 5.914-.436.963-1.018 1.834-1.6 2.705-.63.872-1.308 1.697-2.084 2.43a7.325 7.325 0 01-.63.55c-.097.092-.194.184-.34.276l-.338.23-.146.137-.194.091-.34.23c-.145.045-.241.137-.387.183l-.194.092c-.048.045-.145.045-.194.091l-.387.184-.388.137c-.048 0-.145.046-.194.046l-.194.046-.194.046c-.048 0-.145.046-.194.046l-.436.091h-.194l-.194.046-.193.046h-.194l-.437-.183zm0-.78h.581l.194-.046.194-.045h.194l.388-.092c.048 0 .096-.046.193-.046l.194-.046.194-.046c.049 0 .097-.045.194-.045l.34-.138.339-.138c.048-.046.097-.046.193-.091l.146-.092c.097-.046.242-.138.34-.183l.338-.184.146-.091.145-.092.291-.23c.097-.091.194-.137.29-.229a5.47 5.47 0 00.583-.504 12.458 12.458 0 001.89-2.293 23.087 23.087 0 001.454-2.613 19.65 19.65 0 001.066-2.797c.145-.458.29-.963.388-1.421l.194-.734c.048-.23.097-.504.145-.733.194-.963.34-1.972.436-2.935a30.682 30.682 0 000-5.96 28.64 28.64 0 00-.436-2.935c-.048-.229-.097-.504-.145-.733l-.194-.734c-.145-.504-.242-.963-.388-1.421a19.65 19.65 0 00-1.066-2.797 23.087 23.087 0 00-1.454-2.614 12.459 12.459 0 00-1.89-2.292c-.194-.184-.34-.367-.582-.504a1.27 1.27 0 00-.291-.23l-.29-.229-.146-.092-.146-.091-.339-.184c-.097-.046-.242-.137-.34-.183l-.145-.092c-.048-.046-.096-.046-.193-.092l-.34-.137-.339-.138c-.048 0-.097-.046-.194-.046l-.194-.045-.194-.046c-.048 0-.097-.046-.194-.046l-.387-.092h-.194l-.194-.046-.194-.045H60.18l-.388.091c-.048 0-.145.046-.193.046l-.194.046-.194.046c-.049 0-.097.046-.194.046l-.34.137-.339.138c-.048.046-.097.046-.193.091l-.146.092c-.097.046-.242.138-.34.184l-.338.183-.146.092-.145.091-.291.23c-.097.091-.194.137-.29.229a5.47 5.47 0 00-.583.504c-.775.688-1.405 1.467-1.987 2.293a17.947 17.947 0 00-1.55 2.613c-.437.917-.825 1.834-1.116 2.797a20.19 20.19 0 00-.775 2.934 31.527 31.527 0 00-.436 2.98 31.628 31.628 0 000 6.053c.097 1.009.242 2.017.436 2.98a22.325 22.325 0 001.939 5.731c.436.917.97 1.788 1.55 2.614a15.383 15.383 0 001.988 2.292c.194.184.388.321.582.505.097.091.194.137.29.229l.291.23.146.09.145.093.34.183c.096.046.242.137.339.183l.145.092c.048.046.097.046.194.092l.34.137.339.138c.048 0 .096.046.193.046l.194.046.194.045c.049 0 .097.046.194.046l.388.092h.774l.34-.092z" fill="#fff"/><path d="M60.222 50.785h-17.66c-9.477 0-17.135-11.343-17.135-25.319 0-13.975 7.706-25.319 17.135-25.319h17.66c-9.476 0-17.134 11.344-17.134 25.32 0 13.975 7.658 25.319 17.134 25.319z" fill="#FF7931"/><path d="M45.071 37.342c-.478-1.317-.86-2.724-1.195-4.132-.239-1.227-.478-2.453-.621-3.725a31.953 31.953 0 01-.191-3.724v-.272c0-1.226.048-2.453.191-3.679.143-1.59.43-3.088.765-4.587 1.338-5.813 4.11-10.672 7.647-13.715.908-.772 1.912-1.454 2.916-1.953.812-.409 1.672-.772 2.533-1a11.773 11.773 0 012.533-.408h.573-18.21a12.27 12.27 0 00-2.533.409c-.86.227-1.72.59-2.533.999-1.004.545-2.007 1.18-2.915 1.953-3.537 3.043-6.31 7.902-7.648 13.715-.334 1.454-.573 2.998-.765 4.587-.095 1.181-.19 2.407-.19 3.679v.272c0 1.272.095 2.498.19 3.724.144 1.272.335 2.544.622 3.725a35.134 35.134 0 001.195 4.132c2.867 7.994 8.555 13.444 15.103 13.444h17.637c-6.548 0-12.236-5.45-15.104-13.444z" fill="#FF7931"/><path d="M61.428 51.17c-.346 0-.742 0-1.088-.045-2.623-.137-5.245-.046-7.868-.092a5.371 5.371 0 01-1.237-.274c2.82.091 4.948.137 7.868.183a8.448 8.448 0 01-1.04-.229c-.197-.045-.544 0-.742 0a871.127 871.127 0 01-7.075-.228c-.396-.137-.792-.32-1.188-.503 2.82.137 4.948.228 7.818.32-.346-.137-.693-.274-.99-.457-.198-.046-.544-.046-.742-.046-3.068-.137-6.086-.32-7.026-.366-.396-.228-.742-.457-1.138-.686 2.77.183 4.948.32 7.768.458-.297-.183-.643-.412-.94-.595-.198-.091-.495-.045-.742-.045-3.018-.183-6.037-.412-7.026-.458-.347-.274-.693-.594-1.04-.868 2.772.228 4.85.365 7.72.594-.297-.229-.594-.503-.891-.777-.198-.092-.495-.046-.742-.046-3.019-.229-5.79-.503-6.977-.594-.346-.32-.643-.686-.94-1.052 3.117.274 5.344.503 7.67.686-.298-.274-.545-.594-.792-.915-3.167-.32-5.047-.502-7.62-.731a18.185 18.185 0 01-.841-1.235c3.117.32 5.294.55 7.57.823a7.962 7.962 0 01-.693-1.051c-3.117-.32-5.047-.549-7.57-.869l-.742-1.371c2.622.32 4.849.594 7.52.914a28.87 28.87 0 01-.593-1.189c-3.068-.366-4.948-.594-7.472-.96-.198-.503-.445-1.006-.643-1.509 2.623.366 4.75.64 7.422 1.006-.198-.411-.346-.869-.495-1.28-3.018-.411-4.997-.686-7.372-1.006a19.755 19.755 0 01-.495-1.6c2.672.411 4.602.686 7.323 1.052-.148-.458-.247-.915-.396-1.372-2.573-.366-4.602-.686-7.323-1.097-.148-.549-.247-1.143-.346-1.738 2.82.457 4.354.686 7.273 1.143-.099-.503-.198-.96-.247-1.463-2.969-.457-4.7-.731-7.224-1.143a21.86 21.86 0 01-.198-1.783c3.068.503 4.404.732 7.125 1.189l-.148-1.509c-2.97-.503-4.652-.777-7.076-1.189v-1.874c5.888 1.006 5.888 1.006 7.026 1.234v-1.6a821.71 821.71 0 01-6.977-1.189c.05-.594.1-1.234.149-1.828 2.721.457 4.75.823 6.927 1.188l.148-1.508c-2.968-.503-4.304-.732-6.877-1.144.099-.594.198-1.188.297-1.737.049-.229.099-.503.148-.732-.05.23-.099.458-.148.732 2.968.503 3.909.64 6.828 1.143.099-.503.198-.96.297-1.463a348.45 348.45 0 00-6.78-1.097c.15-.549.298-1.098.446-1.646 2.771.457 4.107.64 6.73 1.051.148-.457.247-.914.396-1.371-2.227-.366-4.454-.686-6.68-1.052.197-.503.395-1.051.593-1.554 2.722.411 4.404.64 6.63 1.005.15-.41.347-.868.496-1.28-2.87-.411-4.949-.731-6.63-.96.247-.503.445-.96.741-1.417 2.722.366 4.157.594 6.581.914.198-.411.396-.777.644-1.188-2.722-.366-4.404-.595-6.532-.87.247-.456.544-.868.841-1.28.1-.182.248-.32.347-.502-.149.183-.248.32-.347.503 2.672.32 4.256.548 6.482.823.248-.366.495-.686.693-1.052-2.672-.32-4.453-.549-6.482-.777.297-.366.594-.732.94-1.097 2.623.274 4.255.457 6.433.685.247-.32.544-.64.791-.914a623.414 623.414 0 00-6.383-.64c.347-.32.693-.64 1.04-.914 2.622.228 4.255.411 6.382.594.297-.274.594-.503.891-.777-2.622-.229-4.354-.366-6.334-.549.347-.274.743-.503 1.09-.732 2.572.183 4.155.32 6.333.458.297-.229.643-.412.94-.595-2.573-.183-4.256-.274-6.284-.411l1.187-.549c2.573.137 4.157.229 6.284.32.347-.137.644-.32.99-.411C54.5.97 52.819.924 50.839.832c.396-.137.842-.228 1.237-.32 2.573.046 4.157.138 6.235.183.346-.091.693-.183 1.039-.228C56.777.42 55.144.375 53.115.329c.446-.045.94-.091 1.386-.091h-1.534c-9.797 0-17.714 11.43-17.714 25.512s7.966 25.512 17.714 25.512h1.534l-.841-.046c3.117-.046 5.294-.046 7.768-.046z" fill="#48494D"/><path d="M33.62 25.659C33.62 11.577 41.587.147 51.334.147H49.8c-.494 0-.99.046-1.435.091-3.216.046-5.393.092-7.422.138a8.457 8.457 0 00-1.039.228c3.513-.091 6.037-.137 7.373-.183-.396.092-.841.183-1.237.32-3.216.092-5.492.183-7.373.275-.346.137-.693.274-.99.411 3.068-.137 5.345-.228 7.324-.32-.396.183-.792.32-1.188.549-3.166.137-5.443.274-7.323.366-.297.182-.643.365-.94.594a630.97 630.97 0 007.323-.457 8.764 8.764 0 00-1.088.731c-3.167.229-5.344.366-7.274.503-.297.229-.594.503-.89.777 3.166-.274 5.343-.411 7.273-.548-.346.274-.693.594-1.04.914-3.117.274-5.393.457-7.223.64-.297.275-.545.595-.792.915 3.167-.32 5.294-.503 7.175-.686-.297.366-.644.731-.94 1.097-3.118.32-5.146.503-7.175.732a7.89 7.89 0 00-.693 1.051c2.969-.32 5.195-.548 7.125-.777-.297.411-.544.823-.84 1.28-3.118.366-4.9.549-7.077.823-.198.366-.445.777-.643 1.189 3.117-.366 5.097-.64 7.076-.869-.248.457-.495.915-.693 1.418-3.068.365-5.146.64-7.026.914-.198.411-.346.823-.495 1.28 2.92-.411 5.195-.686 6.977-.914-.198.503-.396 1.005-.594 1.554-3.266.457-5.74.823-6.927.96-.149.457-.297.915-.396 1.372 2.92-.412 5.096-.732 6.927-1.006l-.445 1.646c-2.969.457-4.998.732-6.878 1.051-.099.458-.198.96-.297 1.464l6.828-1.052c-.098.594-.197 1.143-.296 1.737-2.92.458-4.8.778-6.78 1.098l-.148 1.508c3.217-.548 5.84-.96 6.73-1.097-.05.595-.1 1.189-.149 1.829-3.117.549-5.591.96-6.68 1.143v1.6c2.227-.366 4.404-.777 6.63-1.143v.457c0 .458 0 .96.05 1.418-3.216.548-5.74 1.006-6.58 1.143l.148 1.509c1.979-.32 4.156-.686 6.531-1.098.05.595.1 1.189.198 1.783-1.187.183-3.563.595-6.482 1.098.1.502.149.96.248 1.463 2.968-.503 5.047-.823 6.432-1.052.099.594.198 1.143.346 1.737-3.067.503-5.541.915-6.383 1.006.1.458.248.915.396 1.372 2.92-.457 5.047-.777 6.334-1.006.148.549.297 1.097.495 1.6-2.82.412-4.305.64-6.284.96.148.458.346.87.494 1.28 2.92-.41 4.899-.73 6.235-.914.198.503.396 1.006.643 1.509-2.721.411-4.552.64-6.185.869.198.411.396.777.594 1.188 2.87-.411 4.948-.685 6.185-.868l.742 1.371c.1.183.198.366.346.549-.098-.183-.247-.366-.346-.549-2.721.366-4.602.595-6.135.823.247.366.445.732.692 1.052 2.87-.366 4.948-.595 6.086-.777.297.411.545.823.842 1.234-2.524.32-4.404.503-6.087.686.248.32.545.64.792.914 2.623-.274 4.404-.457 6.037-.64.297.366.643.732.94 1.052-2.623.274-4.354.457-5.987.594.297.274.593.549.89.777 2.573-.228 4.454-.411 5.988-.548.346.32.692.594 1.039.868.099.046.148.138.247.183-.099-.045-.148-.137-.247-.183-2.623.229-4.355.366-5.938.503.297.229.643.412.94.595a343.16 343.16 0 005.938-.457c.346.228.742.457 1.138.685-2.82.183-4.85.32-5.888.366.346.137.643.32.99.457 2.572-.137 4.403-.228 5.887-.32.396.183.792.32 1.188.503-2.77.137-4.85.183-5.888.229.346.091.693.183 1.039.228 2.523-.045 4.305-.137 5.839-.182.395.09.84.182 1.237.274-2.771.046-4.75.091-5.84.091.347.046.743.046 1.09.046h.049c2.721 0 4.651 0 5.79-.046.247 0 .544.046.79.046h1.535c-9.748 0-17.665-11.43-17.665-25.512z" fill="#48494D"/><path d="M88.227 16.387c4.114-1.82 5.601-5.73 5.65-5.957l.596-1.637H66.914l1.487 1.955c1.289 1.728 2.33 3.638 3.024 5.639l.247.727.199.819c.446 1.728.694 3.547.694 5.32V24.3l-.05.773c-.149 1.91-.644 3.82-1.338 5.64l-.248.636-.297.591c-.942 2.046.693 3.956-.893 5.639l-1.834 2.092h5.305c6.89-.546 9.17-6.549 9.269-6.821l.148-.455h.05c6.89-.546 9.17-6.548 9.269-6.821l.396-1.046c5.502-1.319 7.336-6.321 7.435-6.549l.595-1.637H88.227v.046z" fill="#fff"/><path d="M65.576 8.793a25.798 25.798 0 013.135 6.175h25.135c5.933-.518 7.863-6.175 7.863-6.175H65.576zM69.59 32.26h14.827c5.98-.52 7.924-6.176 7.924-6.176h-21.39c-.194 2.168-.631 4.242-1.36 6.175zm-4.014 6.175H77.49c6.157-.415 8.16-4.94 8.16-4.94H69.68c-1.05 1.772-2.452 3.469-4.104 4.94zm4.702-15.151v.33h19.407c6.044-.519 8.01-6.176 8.01-6.176H69.59c.442 1.839.688 3.819.688 5.846z" fill="#FF7931"/></svg>