<svg width="28" height="31" fill="none" xmlns="http://www.w3.org/2000/svg"><path d="M27.366 19.09l-.54-2.042-5.53 1.46-2.438-1.461v-3.382l2.624-1.523 5.658 1.5.54-2.043-3.612-.957 3.61-2.096-1.06-1.828L23.05 8.79l.934-3.539-2.043-.539-1.47 5.575-2.67 1.55-2.916-1.684V7.137l4.13-4.103-1.488-1.499-2.642 2.624V0h-2.113v4.13l-2.593-2.592L8.684 3.03l4.088 4.087v3.035l-2.917 1.684-2.612-1.508-1.482-5.617-2.043.54.947 3.588L1.06 6.756.002 8.586l3.586 2.071-3.566.941.54 2.043 5.616-1.483-.002-.005 2.622 1.514v3.445L6.165 18.64.56 17.161l-.539 2.043 3.555.938L0 22.218l1.06 1.827 3.613-2.096-.954 3.602 2.042.54 1.495-5.641 2.664-1.547 2.851 1.647v3.134l-4.087 4.087 1.494 1.494 2.593-2.593v4.13h2.113v-4.159l2.642 2.625 1.49-1.5-4.132-4.104V20.55l2.908-1.679 2.664 1.596 1.16 5.46 2.065-.44-.751-3.537 3.362 2.014 1.085-1.813-3.549-2.127 3.538-.934zm-10.62-2.055l-2.918 1.685-2.917-1.685v-3.368l2.917-1.684 2.918 1.684v3.368z" fill="#6CA7FF"/></svg>