<svg width="44" height="82" fill="none" xmlns="http://www.w3.org/2000/svg"><path stroke="#fff" stroke-width="2" d="M1 39h42v7H1zm13.344-5l3-10h9.875l2.5 10H14.344zm.036 17l2.945 9h9.35l2.945-9H14.38z"/><mask id="a" fill="#fff"><path d="M17.058 0h9.884v19.768h-9.884V0z"/></mask><path d="M17.058 0v-2h-2v2h2zm9.884 0h2v-2h-2v2zm0 19.768v2h2v-2h-2zm-9.884 0h-2v2h2v-2zm0-17.768h9.884v-4h-9.884v4zm7.884-2v19.768h4V0h-4zm2 17.768h-9.884v4h9.884v-4zm-7.884 2V0h-4v19.768h4z" fill="#fff" mask="url(#a)"/><mask id="b" fill="#fff"><path d="M17.058 63.819h9.884v17.297h-9.884V63.82z"/></mask><path d="M17.058 63.819v-2h-2v2h2zm9.884 0h2v-2h-2v2zm0 17.297v2h2v-2h-2zm-9.884 0h-2v2h2v-2zm0-15.297h9.884v-4h-9.884v4zm7.884-2v17.297h4V63.82h-4zm2 15.297h-9.884v4h9.884v-4zm-7.884 2V63.82h-4v17.297h4z" fill="#fff" mask="url(#b)"/></svg>