<svg width="28" height="52" viewBox="0 0 28 52" fill="none" xmlns="http://www.w3.org/2000/svg">
<rect x="1.70117" y="25.4537" width="25.2165" height="3.56701" stroke="white" stroke-width="2"/>
<path d="M10.0862 21.5981L11.713 16.1754H17.2398L18.5954 21.5981H10.0862Z" stroke="white" stroke-width="2"/>
<path d="M10.1217 32.8761L11.6939 37.6803H16.9245L18.4967 32.8761H10.1217Z" stroke="white" stroke-width="2"/>
<mask id="path-4-inside-1_828:23" fill="white">
<path d="M11.252 0.948532H17.3659V13.1765H11.252V0.948532Z"/>
</mask>
<path d="M11.252 0.948532V-1.05147H9.25195V0.948532H11.252ZM17.3659 0.948532H19.3659V-1.05147H17.3659V0.948532ZM17.3659 13.1765V15.1765H19.3659V13.1765H17.3659ZM11.252 13.1765H9.25195V15.1765H11.252V13.1765ZM11.252 2.94853H17.3659V-1.05147H11.252V2.94853ZM15.3659 0.948532V13.1765H19.3659V0.948532H15.3659ZM17.3659 11.1765H11.252V15.1765H17.3659V11.1765ZM13.252 13.1765V0.948532H9.25195V13.1765H13.252Z" fill="white" mask="url(#path-4-inside-1_828:23)"/>
<mask id="path-6-inside-2_828:23" fill="white">
<path d="M11.252 40.424H17.3659V51.1235H11.252V40.424Z"/>
</mask>
<path d="M11.252 40.424V38.424H9.25195V40.424H11.252ZM17.3659 40.424H19.3659V38.424H17.3659V40.424ZM17.3659 51.1235V53.1235H19.3659V51.1235H17.3659ZM11.252 51.1235H9.25195V53.1235H11.252V51.1235ZM11.252 42.424H17.3659V38.424H11.252V42.424ZM15.3659 40.424V51.1235H19.3659V40.424H15.3659ZM17.3659 49.1235H11.252V53.1235H17.3659V49.1235ZM13.252 51.1235V40.424H9.25195V51.1235H13.252Z" fill="white" mask="url(#path-6-inside-2_828:23)"/>
<circle cx="14.3089" cy="4.65977" r="1.23711" fill="white"/>
<circle cx="14.3089" cy="47.3403" r="1.23711" fill="white"/>
</svg>
