<svg width="21" height="25" fill="none" xmlns="http://www.w3.org/2000/svg"><path d="M10.348.832c-3.99 0-7.244 3.214-7.244 7.156 0 2.447 1.261 4.62 3.17 5.91C2.57 15.455 0 19.088 0 23.322h2.07c0-4.565 3.658-8.178 8.278-8.178 4.62 0 8.278 3.613 8.278 8.178h2.07c0-4.233-2.571-7.867-6.274-9.424 1.908-1.29 3.17-3.463 3.17-5.91 0-3.942-3.255-7.156-7.244-7.156zm0 2.044c2.87 0 5.174 2.277 5.174 5.112s-2.304 5.111-5.174 5.111c-2.87 0-5.174-2.276-5.174-5.111s2.304-5.112 5.174-5.112z" fill="#A8A8A8"/><ellipse cx="1.035" cy="23.322" rx="1.035" ry="1.022" fill="#A8A8A8"/><ellipse cx="19.661" cy="23.322" rx="1.035" ry="1.022" fill="#A8A8A8"/></svg>